<?xml version="1.0" encoding="UTF-8" standalone="no"?>
<!DOCTYPE svg PUBLIC "-//W3C//DTD SVG 1.1//EN"
 "http://www.w3.org/Graphics/SVG/1.1/DTD/svg11.dtd">
<!-- Generated by graphviz version 2.36.0 (20140111.2315)
 -->
<!-- Title: controllers_diagram Pages: 1 -->
<svg width="641pt" height="766pt"
 viewBox="0.00 0.00 641.00 766.00" xmlns="http://www.w3.org/2000/svg" xmlns:xlink="http://www.w3.org/1999/xlink">
<g id="graph0" class="graph" transform="scale(1 1) rotate(0) translate(4 762)">
<title>controllers_diagram</title>
<polygon fill="none" stroke="none" points="-4,4 -4,-762 637,-762 637,4 -4,4"/>
<!-- _diagram_info -->
<g id="node1" class="node"><title>_diagram_info</title>
<text text-anchor="start" x="8" y="-63.6" font-family="Times,serif" font-size="13.00">Controllers diagram</text>
<text text-anchor="start" x="8" y="-49.6" font-family="Times,serif" font-size="13.00">Date: Nov 12 2015 &#45; 19:44</text>
<text text-anchor="start" x="8" y="-35.6" font-family="Times,serif" font-size="13.00">Migration version: 20151108172739</text>
<text text-anchor="start" x="8" y="-21.6" font-family="Times,serif" font-size="13.00">Generated by RailRoady 1.4.1</text>
<text text-anchor="start" x="8" y="-7.6" font-family="Times,serif" font-size="13.00">http://railroady.prestonlee.com</text>
</g>
<!-- TasksController -->
<g id="node2" class="node"><title>TasksController</title>
<path fill="none" stroke="black" d="M392,-180.5C392,-180.5 535,-180.5 535,-180.5 541,-180.5 547,-186.5 547,-192.5 547,-192.5 547,-455.5 547,-455.5 547,-461.5 541,-467.5 535,-467.5 535,-467.5 392,-467.5 392,-467.5 386,-467.5 380,-461.5 380,-455.5 380,-455.5 380,-192.5 380,-192.5 380,-186.5 386,-180.5 392,-180.5"/>
<text text-anchor="middle" x="463.5" y="-452.3" font-family="Times,serif" font-size="14.00">TasksController</text>
<polyline fill="none" stroke="black" points="380,-444.5 547,-444.5 "/>
<text text-anchor="start" x="388" y="-429.3" font-family="Times,serif" font-size="14.00">create</text>
<text text-anchor="start" x="388" y="-414.3" font-family="Times,serif" font-size="14.00">index</text>
<text text-anchor="start" x="388" y="-399.3" font-family="Times,serif" font-size="14.00">set_menu_context</text>
<text text-anchor="start" x="388" y="-384.3" font-family="Times,serif" font-size="14.00">share</text>
<polyline fill="none" stroke="black" points="380,-376.5 547,-376.5 "/>
<text text-anchor="start" x="388" y="-361.3" font-family="Times,serif" font-size="14.00">begin_of_association_chain</text>
<text text-anchor="start" x="388" y="-346.3" font-family="Times,serif" font-size="14.00">collection_path</text>
<text text-anchor="start" x="388" y="-331.3" font-family="Times,serif" font-size="14.00">collection_url</text>
<text text-anchor="start" x="388" y="-316.3" font-family="Times,serif" font-size="14.00">edit_resource_path</text>
<text text-anchor="start" x="388" y="-301.3" font-family="Times,serif" font-size="14.00">edit_resource_url</text>
<text text-anchor="start" x="388" y="-286.3" font-family="Times,serif" font-size="14.00">load_model</text>
<text text-anchor="start" x="388" y="-271.3" font-family="Times,serif" font-size="14.00">new_resource_path</text>
<text text-anchor="start" x="388" y="-256.3" font-family="Times,serif" font-size="14.00">new_resource_url</text>
<text text-anchor="start" x="388" y="-241.3" font-family="Times,serif" font-size="14.00">resource_path</text>
<text text-anchor="start" x="388" y="-226.3" font-family="Times,serif" font-size="14.00">resource_url</text>
<polyline fill="none" stroke="black" points="380,-218.5 547,-218.5 "/>
<text text-anchor="start" x="388" y="-203.3" font-family="Times,serif" font-size="14.00">_layout</text>
<text text-anchor="start" x="388" y="-188.3" font-family="Times,serif" font-size="14.00">actual_menu_context</text>
</g>
<!-- ApplicationController -->
<g id="node3" class="node"><title>ApplicationController</title>
<path fill="none" stroke="black" d="M392,-40.5C392,-40.5 562,-40.5 562,-40.5 568,-40.5 574,-46.5 574,-52.5 574,-52.5 574,-136.5 574,-136.5 574,-142.5 568,-148.5 562,-148.5 562,-148.5 392,-148.5 392,-148.5 386,-148.5 380,-142.5 380,-136.5 380,-136.5 380,-52.5 380,-52.5 380,-46.5 386,-40.5 392,-40.5"/>
<text text-anchor="middle" x="477" y="-133.3" font-family="Times,serif" font-size="14.00">ApplicationController</text>
<polyline fill="none" stroke="black" points="380,-125.5 574,-125.5 "/>
<text text-anchor="start" x="388" y="-110.3" font-family="Times,serif" font-size="14.00">after_sign_in_path_for</text>
<text text-anchor="start" x="388" y="-95.3" font-family="Times,serif" font-size="14.00">configure_permitted_parameters</text>
<polyline fill="none" stroke="black" points="380,-87.5 574,-87.5 "/>
<polyline fill="none" stroke="black" points="380,-63.5 574,-63.5 "/>
<text text-anchor="start" x="388" y="-48.3" font-family="Times,serif" font-size="14.00">_layout</text>
</g>
<!-- ActionsController -->
<g id="node4" class="node"><title>ActionsController</title>
<path fill="none" stroke="black" d="M512,-500.5C512,-500.5 621,-500.5 621,-500.5 627,-500.5 633,-506.5 633,-512.5 633,-512.5 633,-745.5 633,-745.5 633,-751.5 627,-757.5 621,-757.5 621,-757.5 512,-757.5 512,-757.5 506,-757.5 500,-751.5 500,-745.5 500,-745.5 500,-512.5 500,-512.5 500,-506.5 506,-500.5 512,-500.5"/>
<text text-anchor="middle" x="566.5" y="-742.3" font-family="Times,serif" font-size="14.00">ActionsController</text>
<polyline fill="none" stroke="black" points="500,-734.5 633,-734.5 "/>
<text text-anchor="start" x="508" y="-719.3" font-family="Times,serif" font-size="14.00">confirmate</text>
<text text-anchor="start" x="508" y="-704.3" font-family="Times,serif" font-size="14.00">finalize</text>
<text text-anchor="start" x="508" y="-689.3" font-family="Times,serif" font-size="14.00">participate</text>
<text text-anchor="start" x="508" y="-674.3" font-family="Times,serif" font-size="14.00">set_menu_context</text>
<polyline fill="none" stroke="black" points="500,-666.5 633,-666.5 "/>
<text text-anchor="start" x="508" y="-651.3" font-family="Times,serif" font-size="14.00">collection_path</text>
<text text-anchor="start" x="508" y="-636.3" font-family="Times,serif" font-size="14.00">collection_url</text>
<text text-anchor="start" x="508" y="-621.3" font-family="Times,serif" font-size="14.00">edit_resource_path</text>
<text text-anchor="start" x="508" y="-606.3" font-family="Times,serif" font-size="14.00">edit_resource_url</text>
<text text-anchor="start" x="508" y="-591.3" font-family="Times,serif" font-size="14.00">new_resource_path</text>
<text text-anchor="start" x="508" y="-576.3" font-family="Times,serif" font-size="14.00">new_resource_url</text>
<text text-anchor="start" x="508" y="-561.3" font-family="Times,serif" font-size="14.00">resource_path</text>
<text text-anchor="start" x="508" y="-546.3" font-family="Times,serif" font-size="14.00">resource_url</text>
<polyline fill="none" stroke="black" points="500,-538.5 633,-538.5 "/>
<text text-anchor="start" x="508" y="-523.3" font-family="Times,serif" font-size="14.00">_layout</text>
<text text-anchor="start" x="508" y="-508.3" font-family="Times,serif" font-size="14.00">actual_menu_context</text>
</g>
<!-- PostsController -->
<g id="node5" class="node"><title>PostsController</title>
<path fill="none" stroke="black" d="M192,-120.5C192,-120.5 335,-120.5 335,-120.5 341,-120.5 347,-126.5 347,-132.5 347,-132.5 347,-425.5 347,-425.5 347,-431.5 341,-437.5 335,-437.5 335,-437.5 192,-437.5 192,-437.5 186,-437.5 180,-431.5 180,-425.5 180,-425.5 180,-132.5 180,-132.5 180,-126.5 186,-120.5 192,-120.5"/>
<text text-anchor="middle" x="263.5" y="-422.3" font-family="Times,serif" font-size="14.00">PostsController</text>
<polyline fill="none" stroke="black" points="180,-414.5 347,-414.5 "/>
<text text-anchor="start" x="188" y="-399.3" font-family="Times,serif" font-size="14.00">create</text>
<text text-anchor="start" x="188" y="-384.3" font-family="Times,serif" font-size="14.00">index</text>
<text text-anchor="start" x="188" y="-369.3" font-family="Times,serif" font-size="14.00">like</text>
<text text-anchor="start" x="188" y="-354.3" font-family="Times,serif" font-size="14.00">set_menu_context</text>
<text text-anchor="start" x="188" y="-339.3" font-family="Times,serif" font-size="14.00">unlike</text>
<polyline fill="none" stroke="black" points="180,-331.5 347,-331.5 "/>
<text text-anchor="start" x="188" y="-316.3" font-family="Times,serif" font-size="14.00">begin_of_association_chain</text>
<text text-anchor="start" x="188" y="-301.3" font-family="Times,serif" font-size="14.00">collection_path</text>
<text text-anchor="start" x="188" y="-286.3" font-family="Times,serif" font-size="14.00">collection_url</text>
<text text-anchor="start" x="188" y="-271.3" font-family="Times,serif" font-size="14.00">edit_resource_path</text>
<text text-anchor="start" x="188" y="-256.3" font-family="Times,serif" font-size="14.00">edit_resource_url</text>
<text text-anchor="start" x="188" y="-241.3" font-family="Times,serif" font-size="14.00">load_like</text>
<text text-anchor="start" x="188" y="-226.3" font-family="Times,serif" font-size="14.00">load_model</text>
<text text-anchor="start" x="188" y="-211.3" font-family="Times,serif" font-size="14.00">new_resource_path</text>
<text text-anchor="start" x="188" y="-196.3" font-family="Times,serif" font-size="14.00">new_resource_url</text>
<text text-anchor="start" x="188" y="-181.3" font-family="Times,serif" font-size="14.00">resource_path</text>
<text text-anchor="start" x="188" y="-166.3" font-family="Times,serif" font-size="14.00">resource_url</text>
<polyline fill="none" stroke="black" points="180,-158.5 347,-158.5 "/>
<text text-anchor="start" x="188" y="-143.3" font-family="Times,serif" font-size="14.00">_layout</text>
<text text-anchor="start" x="188" y="-128.3" font-family="Times,serif" font-size="14.00">actual_menu_context</text>
</g>
<!-- DashboardController -->
<g id="node6" class="node"><title>DashboardController</title>
<path fill="none" stroke="black" d="M212,-480.5C212,-480.5 321,-480.5 321,-480.5 327,-480.5 333,-486.5 333,-492.5 333,-492.5 333,-740.5 333,-740.5 333,-746.5 327,-752.5 321,-752.5 321,-752.5 212,-752.5 212,-752.5 206,-752.5 200,-746.5 200,-740.5 200,-740.5 200,-492.5 200,-492.5 200,-486.5 206,-480.5 212,-480.5"/>
<text text-anchor="middle" x="266.5" y="-737.3" font-family="Times,serif" font-size="14.00">DashboardController</text>
<polyline fill="none" stroke="black" points="200,-729.5 333,-729.5 "/>
<text text-anchor="start" x="208" y="-714.3" font-family="Times,serif" font-size="14.00">check_rank_rules</text>
<text text-anchor="start" x="208" y="-699.3" font-family="Times,serif" font-size="14.00">index</text>
<text text-anchor="start" x="208" y="-684.3" font-family="Times,serif" font-size="14.00">ranking</text>
<text text-anchor="start" x="208" y="-669.3" font-family="Times,serif" font-size="14.00">set_menu_context</text>
<text text-anchor="start" x="208" y="-654.3" font-family="Times,serif" font-size="14.00">wins</text>
<polyline fill="none" stroke="black" points="200,-646.5 333,-646.5 "/>
<text text-anchor="start" x="208" y="-631.3" font-family="Times,serif" font-size="14.00">collection_path</text>
<text text-anchor="start" x="208" y="-616.3" font-family="Times,serif" font-size="14.00">collection_url</text>
<text text-anchor="start" x="208" y="-601.3" font-family="Times,serif" font-size="14.00">edit_resource_path</text>
<text text-anchor="start" x="208" y="-586.3" font-family="Times,serif" font-size="14.00">edit_resource_url</text>
<text text-anchor="start" x="208" y="-571.3" font-family="Times,serif" font-size="14.00">new_resource_path</text>
<text text-anchor="start" x="208" y="-556.3" font-family="Times,serif" font-size="14.00">new_resource_url</text>
<text text-anchor="start" x="208" y="-541.3" font-family="Times,serif" font-size="14.00">resource_path</text>
<text text-anchor="start" x="208" y="-526.3" font-family="Times,serif" font-size="14.00">resource_url</text>
<polyline fill="none" stroke="black" points="200,-518.5 333,-518.5 "/>
<text text-anchor="start" x="208" y="-503.3" font-family="Times,serif" font-size="14.00">_layout</text>
<text text-anchor="start" x="208" y="-488.3" font-family="Times,serif" font-size="14.00">actual_menu_context</text>
</g>
<!-- SiteController -->
<g id="node7" class="node"><title>SiteController</title>
<path fill="none" stroke="black" d="M52,-280.5C52,-280.5 121,-280.5 121,-280.5 127,-280.5 133,-286.5 133,-292.5 133,-292.5 133,-361.5 133,-361.5 133,-367.5 127,-373.5 121,-373.5 121,-373.5 52,-373.5 52,-373.5 46,-373.5 40,-367.5 40,-361.5 40,-361.5 40,-292.5 40,-292.5 40,-286.5 46,-280.5 52,-280.5"/>
<text text-anchor="middle" x="86.5" y="-358.3" font-family="Times,serif" font-size="14.00">SiteController</text>
<polyline fill="none" stroke="black" points="40,-350.5 133,-350.5 "/>
<text text-anchor="start" x="48" y="-335.3" font-family="Times,serif" font-size="14.00">index</text>
<polyline fill="none" stroke="black" points="40,-327.5 133,-327.5 "/>
<polyline fill="none" stroke="black" points="40,-303.5 133,-303.5 "/>
<text text-anchor="start" x="48" y="-288.3" font-family="Times,serif" font-size="14.00">_layout</text>
</g>
<!-- CommentsController -->
<g id="node8" class="node"><title>CommentsController</title>
<path fill="none" stroke="black" d="M32,-540.5C32,-540.5 140,-540.5 140,-540.5 146,-540.5 152,-546.5 152,-552.5 152,-552.5 152,-651.5 152,-651.5 152,-657.5 146,-663.5 140,-663.5 140,-663.5 32,-663.5 32,-663.5 26,-663.5 20,-657.5 20,-651.5 20,-651.5 20,-552.5 20,-552.5 20,-546.5 26,-540.5 32,-540.5"/>
<text text-anchor="middle" x="86" y="-648.3" font-family="Times,serif" font-size="14.00">CommentsController</text>
<polyline fill="none" stroke="black" points="20,-640.5 152,-640.5 "/>
<text text-anchor="start" x="28" y="-625.3" font-family="Times,serif" font-size="14.00">create</text>
<text text-anchor="start" x="28" y="-610.3" font-family="Times,serif" font-size="14.00">index</text>
<text text-anchor="start" x="28" y="-595.3" font-family="Times,serif" font-size="14.00">new</text>
<polyline fill="none" stroke="black" points="20,-587.5 152,-587.5 "/>
<polyline fill="none" stroke="black" points="20,-563.5 152,-563.5 "/>
<text text-anchor="start" x="28" y="-548.3" font-family="Times,serif" font-size="14.00">_layout</text>
</g>
</g>
</svg>
