<?xml version="1.0" encoding="UTF-8" standalone="no"?>
<!DOCTYPE svg PUBLIC "-//W3C//DTD SVG 1.1//EN"
 "http://www.w3.org/Graphics/SVG/1.1/DTD/svg11.dtd">
<!-- Generated by graphviz version 2.36.0 (20140111.2315)
 -->
<!-- Title: models_diagram Pages: 1 -->
<svg width="1301pt" height="954pt"
 viewBox="0.00 0.00 1301.00 954.00" xmlns="http://www.w3.org/2000/svg" xmlns:xlink="http://www.w3.org/1999/xlink">
<g id="graph0" class="graph" transform="scale(1 1) rotate(0) translate(4 950)">
<title>models_diagram</title>
<polygon fill="none" stroke="none" points="-4,4 -4,-950 1297,-950 1297,4 -4,4"/>
<!-- _diagram_info -->
<g id="node1" class="node"><title>_diagram_info</title>
<text text-anchor="start" x="25" y="-834.6" font-family="Times,serif" font-size="13.00">Models diagram</text>
<text text-anchor="start" x="25" y="-820.6" font-family="Times,serif" font-size="13.00">Date: Nov 12 2015 &#45; 19:44</text>
<text text-anchor="start" x="25" y="-806.6" font-family="Times,serif" font-size="13.00">Migration version: 20151108172739</text>
<text text-anchor="start" x="25" y="-792.6" font-family="Times,serif" font-size="13.00">Generated by RailRoady 1.4.1</text>
<text text-anchor="start" x="25" y="-778.6" font-family="Times,serif" font-size="13.00">http://railroady.prestonlee.com</text>
</g>
<!-- Comment -->
<g id="node2" class="node"><title>Comment</title>
<path fill="none" stroke="black" d="M12,-88.5C12,-88.5 232,-88.5 232,-88.5 238,-88.5 244,-94.5 244,-100.5 244,-100.5 244,-227.5 244,-227.5 244,-233.5 238,-239.5 232,-239.5 232,-239.5 12,-239.5 12,-239.5 6,-239.5 0,-233.5 0,-227.5 0,-227.5 0,-100.5 0,-100.5 0,-94.5 6,-88.5 12,-88.5"/>
<text text-anchor="middle" x="122" y="-224.3" font-family="Times,serif" font-size="14.00">Comment</text>
<polyline fill="none" stroke="black" points="0,-216.5 244,-216.5 "/>
<text text-anchor="start" x="8" y="-201.3" font-family="Times,serif" font-size="14.00">id :integer</text>
<text text-anchor="start" x="8" y="-186.3" font-family="Times,serif" font-size="14.00">text :character varying</text>
<text text-anchor="start" x="8" y="-171.3" font-family="Times,serif" font-size="14.00">created_at :timestamp without time zone</text>
<text text-anchor="start" x="8" y="-156.3" font-family="Times,serif" font-size="14.00">updated_at :timestamp without time zone</text>
<text text-anchor="start" x="8" y="-141.3" font-family="Times,serif" font-size="14.00">user_id :integer</text>
<text text-anchor="start" x="8" y="-126.3" font-family="Times,serif" font-size="14.00">post_id :integer</text>
<text text-anchor="start" x="8" y="-111.3" font-family="Times,serif" font-size="14.00">parent_id :integer</text>
<text text-anchor="start" x="8" y="-96.3" font-family="Times,serif" font-size="14.00">classifier :integer</text>
</g>
<!-- Comment&#45;&gt;Comment -->
<g id="edge1" class="edge"><title>Comment&#45;&gt;Comment</title>
<path fill="none" stroke="#5fe42b" d="M252.51,-167.671C258.497,-166.741 262,-165.518 262,-164 262,-162.647 259.217,-161.528 254.373,-160.643"/>
<ellipse fill="none" stroke="#5fe42b" cx="248.373" cy="-168.158" rx="4.00001" ry="4.00001"/>
<polygon fill="#5fe42b" stroke="#5fe42b" points="254.32,-160.636 244.968,-154.909 249.36,-160.005 244.4,-159.373 244.4,-159.373 244.4,-159.373 249.36,-160.005 243.832,-163.837 254.32,-160.636 254.32,-160.636"/>
<text text-anchor="middle" x="284.5" y="-160.3" font-family="Times,serif" font-size="14.00">children</text>
</g>
<!-- Comment&#45;&gt;Comment -->
<g id="edge3" class="edge"><title>Comment&#45;&gt;Comment</title>
<path fill="none" stroke="#537e03" d="M254.35,-175.389C284.494,-174.257 307,-170.461 307,-164 307,-157.539 284.494,-153.743 254.35,-152.611"/>
<polygon fill="#537e03" stroke="#537e03" points="254.31,-175.39 244.191,-171.165 249.312,-175.527 244.314,-175.663 244.314,-175.663 244.314,-175.663 249.312,-175.527 244.437,-180.162 254.31,-175.39 254.31,-175.39"/>
<polygon fill="#537e03" stroke="#537e03" points="254.31,-152.61 244.437,-147.838 249.312,-152.473 244.314,-152.337 244.314,-152.337 244.314,-152.337 249.312,-152.473 244.191,-156.835 254.31,-152.61 254.31,-152.61"/>
<text text-anchor="middle" x="358.5" y="-160.3" font-family="Times,serif" font-size="14.00">self_and_ancestors</text>
</g>
<!-- Comment&#45;&gt;Comment -->
<g id="edge5" class="edge"><title>Comment&#45;&gt;Comment</title>
<path fill="none" stroke="#70f5a0" d="M254.606,-181.115C331.5,-183.454 410,-177.749 410,-164 410,-150.251 331.5,-144.546 254.606,-146.885"/>
<polygon fill="#70f5a0" stroke="#70f5a0" points="254.26,-181.103 244.424,-176.254 249.263,-180.927 244.266,-180.751 244.266,-180.751 244.266,-180.751 249.263,-180.927 244.108,-185.248 254.26,-181.103 254.26,-181.103"/>
<polygon fill="#70f5a0" stroke="#70f5a0" points="254.26,-146.897 244.108,-142.752 249.263,-147.073 244.266,-147.249 244.266,-147.249 244.266,-147.249 249.263,-147.073 244.424,-151.746 254.26,-146.897 254.26,-146.897"/>
<text text-anchor="middle" x="469" y="-160.3" font-family="Times,serif" font-size="14.00">self_and_descendants</text>
</g>
<!-- CommentHierarchy -->
<g id="node13" class="node"><title>CommentHierarchy</title>
<ellipse fill="none" stroke="black" cx="122" cy="-18" rx="81.3646" ry="18"/>
<text text-anchor="middle" x="122" y="-14.3" font-family="Times,serif" font-size="14.00">CommentHierarchy</text>
</g>
<!-- Comment&#45;&gt;CommentHierarchy -->
<g id="edge2" class="edge"><title>Comment&#45;&gt;CommentHierarchy</title>
<path fill="none" stroke="#13f0e1" d="M60.115,-81.0067C58.5627,-77.3711 57.1782,-73.696 56,-70 53.8402,-63.2248 52.3342,-60.0934 56,-54 59.5937,-48.0264 64.5879,-43.0184 70.236,-38.8337"/>
<ellipse fill="none" stroke="#13f0e1" cx="61.8509" cy="-84.775" rx="4.00002" ry="4.00002"/>
<polygon fill="#13f0e1" stroke="#13f0e1" points="70.4775,-38.6786 81.3236,-37.0618 74.6848,-35.977 78.8921,-33.2753 78.8921,-33.2753 78.8921,-33.2753 74.6848,-35.977 76.4606,-29.4888 70.4775,-38.6786 70.4775,-38.6786"/>
<text text-anchor="middle" x="112" y="-58.3" font-family="Times,serif" font-size="14.00">ancestor_hierarchies</text>
</g>
<!-- Comment&#45;&gt;CommentHierarchy -->
<g id="edge4" class="edge"><title>Comment&#45;&gt;CommentHierarchy</title>
<path fill="none" stroke="#5c151c" d="M165.072,-80.6819C166.184,-77.1182 167.17,-73.5491 168,-70 169.619,-63.0756 171.158,-60.3713 168,-54 165.777,-49.5157 162.675,-45.4503 159.119,-41.8106"/>
<ellipse fill="none" stroke="#5c151c" cx="163.725" cy="-84.6749" rx="4.00001" ry="4.00001"/>
<polygon fill="#5c151c" stroke="#5c151c" points="158.825,-41.5515 154.298,-31.5639 155.074,-38.2458 151.322,-34.9401 151.322,-34.9401 151.322,-34.9401 155.074,-38.2458 148.347,-38.3163 158.825,-41.5515 158.825,-41.5515"/>
<text text-anchor="middle" x="233.5" y="-58.3" font-family="Times,serif" font-size="14.00">descendant_hierarchies</text>
</g>
<!-- User -->
<g id="node3" class="node"><title>User</title>
<path fill="none" stroke="black" d="M261.5,-674.5C261.5,-674.5 550.5,-674.5 550.5,-674.5 556.5,-674.5 562.5,-680.5 562.5,-686.5 562.5,-686.5 562.5,-933.5 562.5,-933.5 562.5,-939.5 556.5,-945.5 550.5,-945.5 550.5,-945.5 261.5,-945.5 261.5,-945.5 255.5,-945.5 249.5,-939.5 249.5,-933.5 249.5,-933.5 249.5,-686.5 249.5,-686.5 249.5,-680.5 255.5,-674.5 261.5,-674.5"/>
<text text-anchor="middle" x="406" y="-930.3" font-family="Times,serif" font-size="14.00">User</text>
<polyline fill="none" stroke="black" points="249.5,-922.5 562.5,-922.5 "/>
<text text-anchor="start" x="257.5" y="-907.3" font-family="Times,serif" font-size="14.00">id :integer</text>
<text text-anchor="start" x="257.5" y="-892.3" font-family="Times,serif" font-size="14.00">email :character varying</text>
<text text-anchor="start" x="257.5" y="-877.3" font-family="Times,serif" font-size="14.00">encrypted_password :character varying</text>
<text text-anchor="start" x="257.5" y="-862.3" font-family="Times,serif" font-size="14.00">reset_password_token :character varying</text>
<text text-anchor="start" x="257.5" y="-847.3" font-family="Times,serif" font-size="14.00">reset_password_sent_at :timestamp without time zone</text>
<text text-anchor="start" x="257.5" y="-832.3" font-family="Times,serif" font-size="14.00">remember_created_at :timestamp without time zone</text>
<text text-anchor="start" x="257.5" y="-817.3" font-family="Times,serif" font-size="14.00">sign_in_count :integer</text>
<text text-anchor="start" x="257.5" y="-802.3" font-family="Times,serif" font-size="14.00">current_sign_in_at :timestamp without time zone</text>
<text text-anchor="start" x="257.5" y="-787.3" font-family="Times,serif" font-size="14.00">last_sign_in_at :timestamp without time zone</text>
<text text-anchor="start" x="257.5" y="-772.3" font-family="Times,serif" font-size="14.00">current_sign_in_ip :inet</text>
<text text-anchor="start" x="257.5" y="-757.3" font-family="Times,serif" font-size="14.00">last_sign_in_ip :inet</text>
<text text-anchor="start" x="257.5" y="-742.3" font-family="Times,serif" font-size="14.00">created_at :timestamp without time zone</text>
<text text-anchor="start" x="257.5" y="-727.3" font-family="Times,serif" font-size="14.00">updated_at :timestamp without time zone</text>
<text text-anchor="start" x="257.5" y="-712.3" font-family="Times,serif" font-size="14.00">sash_id :integer</text>
<text text-anchor="start" x="257.5" y="-697.3" font-family="Times,serif" font-size="14.00">level :integer</text>
<text text-anchor="start" x="257.5" y="-682.3" font-family="Times,serif" font-size="14.00">name :character varying</text>
</g>
<!-- User&#45;&gt;Comment -->
<g id="edge8" class="edge"><title>User&#45;&gt;Comment</title>
<path fill="none" stroke="#09b1bb" d="M275.857,-667.732C268.102,-657.261 260.73,-646.63 254,-636 192.877,-539.456 182.199,-510.203 152,-400 138.61,-351.136 131.16,-294.886 127.034,-249.671"/>
<ellipse fill="none" stroke="#09b1bb" cx="278.332" cy="-671.03" rx="4.00002" ry="4.00002"/>
<polygon fill="#09b1bb" stroke="#09b1bb" points="127.025,-249.572 130.636,-239.218 126.589,-244.591 126.153,-239.61 126.153,-239.61 126.153,-239.61 126.589,-244.591 121.671,-240.002 127.025,-249.572 127.025,-249.572"/>
</g>
<!-- Like -->
<g id="node4" class="node"><title>Like</title>
<path fill="none" stroke="black" d="M594,-111C594,-111 814,-111 814,-111 820,-111 826,-117 826,-123 826,-123 826,-205 826,-205 826,-211 820,-217 814,-217 814,-217 594,-217 594,-217 588,-217 582,-211 582,-205 582,-205 582,-123 582,-123 582,-117 588,-111 594,-111"/>
<text text-anchor="middle" x="704" y="-201.8" font-family="Times,serif" font-size="14.00">Like</text>
<polyline fill="none" stroke="black" points="582,-194 826,-194 "/>
<text text-anchor="start" x="590" y="-178.8" font-family="Times,serif" font-size="14.00">id :integer</text>
<text text-anchor="start" x="590" y="-163.8" font-family="Times,serif" font-size="14.00">created_at :timestamp without time zone</text>
<text text-anchor="start" x="590" y="-148.8" font-family="Times,serif" font-size="14.00">updated_at :timestamp without time zone</text>
<text text-anchor="start" x="590" y="-133.8" font-family="Times,serif" font-size="14.00">post_id :integer</text>
<text text-anchor="start" x="590" y="-118.8" font-family="Times,serif" font-size="14.00">user_id :integer</text>
</g>
<!-- User&#45;&gt;Like -->
<g id="edge9" class="edge"><title>User&#45;&gt;Like</title>
<path fill="none" stroke="#97fafc" d="M538.594,-667.844C546.825,-657.312 554.715,-646.639 562,-636 628.367,-539.076 648.278,-512.819 681,-400 697.49,-343.147 702.695,-275.659 704.099,-227.625"/>
<ellipse fill="none" stroke="#97fafc" cx="535.907" cy="-671.244" rx="4.00002" ry="4.00002"/>
<polygon fill="#97fafc" stroke="#97fafc" points="704.105,-227.374 708.849,-217.487 704.228,-222.376 704.35,-217.377 704.35,-217.377 704.35,-217.377 704.228,-222.376 699.851,-217.267 704.105,-227.374 704.105,-227.374"/>
</g>
<!-- Action -->
<g id="node5" class="node"><title>Action</title>
<path fill="none" stroke="black" d="M440,-278.5C440,-278.5 660,-278.5 660,-278.5 666,-278.5 672,-284.5 672,-290.5 672,-290.5 672,-387.5 672,-387.5 672,-393.5 666,-399.5 660,-399.5 660,-399.5 440,-399.5 440,-399.5 434,-399.5 428,-393.5 428,-387.5 428,-387.5 428,-290.5 428,-290.5 428,-284.5 434,-278.5 440,-278.5"/>
<text text-anchor="middle" x="550" y="-384.3" font-family="Times,serif" font-size="14.00">Action</text>
<polyline fill="none" stroke="black" points="428,-376.5 672,-376.5 "/>
<text text-anchor="start" x="436" y="-361.3" font-family="Times,serif" font-size="14.00">id :integer</text>
<text text-anchor="start" x="436" y="-346.3" font-family="Times,serif" font-size="14.00">created_at :timestamp without time zone</text>
<text text-anchor="start" x="436" y="-331.3" font-family="Times,serif" font-size="14.00">updated_at :timestamp without time zone</text>
<text text-anchor="start" x="436" y="-316.3" font-family="Times,serif" font-size="14.00">task_id :integer</text>
<text text-anchor="start" x="436" y="-301.3" font-family="Times,serif" font-size="14.00">user_id :integer</text>
<text text-anchor="start" x="436" y="-286.3" font-family="Times,serif" font-size="14.00">status :integer</text>
</g>
<!-- User&#45;&gt;Action -->
<g id="edge10" class="edge"><title>User&#45;&gt;Action</title>
<path fill="none" stroke="#336788" d="M523.138,-667.285C528.478,-657.05 533.185,-646.583 537,-636 563.646,-562.086 563.123,-470.997 558.366,-409.542"/>
<ellipse fill="none" stroke="#336788" cx="521.24" cy="-670.811" rx="4.00002" ry="4.00002"/>
<polygon fill="#336788" stroke="#336788" points="558.365,-409.528 562.02,-399.189 557.95,-404.545 557.536,-399.562 557.536,-399.562 557.536,-399.562 557.95,-404.545 553.051,-399.935 558.365,-409.528 558.365,-409.528"/>
</g>
<!-- Task -->
<g id="node7" class="node"><title>Task</title>
<path fill="none" stroke="black" d="M296,-439C296,-439 516,-439 516,-439 522,-439 528,-445 528,-451 528,-451 528,-623 528,-623 528,-629 522,-635 516,-635 516,-635 296,-635 296,-635 290,-635 284,-629 284,-623 284,-623 284,-451 284,-451 284,-445 290,-439 296,-439"/>
<text text-anchor="middle" x="406" y="-619.8" font-family="Times,serif" font-size="14.00">Task</text>
<polyline fill="none" stroke="black" points="284,-612 528,-612 "/>
<text text-anchor="start" x="292" y="-596.8" font-family="Times,serif" font-size="14.00">id :integer</text>
<text text-anchor="start" x="292" y="-581.8" font-family="Times,serif" font-size="14.00">description :character varying</text>
<text text-anchor="start" x="292" y="-566.8" font-family="Times,serif" font-size="14.00">expires_on :timestamp without time zone</text>
<text text-anchor="start" x="292" y="-551.8" font-family="Times,serif" font-size="14.00">address :character varying</text>
<text text-anchor="start" x="292" y="-536.8" font-family="Times,serif" font-size="14.00">city :character varying</text>
<text text-anchor="start" x="292" y="-521.8" font-family="Times,serif" font-size="14.00">province :character varying</text>
<text text-anchor="start" x="292" y="-506.8" font-family="Times,serif" font-size="14.00">country :character varying</text>
<text text-anchor="start" x="292" y="-491.8" font-family="Times,serif" font-size="14.00">created_at :timestamp without time zone</text>
<text text-anchor="start" x="292" y="-476.8" font-family="Times,serif" font-size="14.00">updated_at :timestamp without time zone</text>
<text text-anchor="start" x="292" y="-461.8" font-family="Times,serif" font-size="14.00">user_id :integer</text>
<text text-anchor="start" x="292" y="-446.8" font-family="Times,serif" font-size="14.00">title :character varying(50)</text>
</g>
<!-- User&#45;&gt;Task -->
<g id="edge6" class="edge"><title>User&#45;&gt;Task</title>
<path fill="none" stroke="#c946ea" d="M406,-666.283C406,-659.251 406,-652.244 406,-645.34"/>
<ellipse fill="none" stroke="#c946ea" cx="406" cy="-670.294" rx="4" ry="4"/>
<polygon fill="#c946ea" stroke="#c946ea" points="406,-645.306 410.5,-635.306 406,-640.306 406,-635.306 406,-635.306 406,-635.306 406,-640.306 401.5,-635.306 406,-645.306 406,-645.306"/>
</g>
<!-- Post -->
<g id="node11" class="node"><title>Post</title>
<path fill="none" stroke="black" d="M173,-278.5C173,-278.5 393,-278.5 393,-278.5 399,-278.5 405,-284.5 405,-290.5 405,-290.5 405,-387.5 405,-387.5 405,-393.5 399,-399.5 393,-399.5 393,-399.5 173,-399.5 173,-399.5 167,-399.5 161,-393.5 161,-387.5 161,-387.5 161,-290.5 161,-290.5 161,-284.5 167,-278.5 173,-278.5"/>
<text text-anchor="middle" x="283" y="-384.3" font-family="Times,serif" font-size="14.00">Post</text>
<polyline fill="none" stroke="black" points="161,-376.5 405,-376.5 "/>
<text text-anchor="start" x="169" y="-361.3" font-family="Times,serif" font-size="14.00">id :integer</text>
<text text-anchor="start" x="169" y="-346.3" font-family="Times,serif" font-size="14.00">text :character varying</text>
<text text-anchor="start" x="169" y="-331.3" font-family="Times,serif" font-size="14.00">created_at :timestamp without time zone</text>
<text text-anchor="start" x="169" y="-316.3" font-family="Times,serif" font-size="14.00">updated_at :timestamp without time zone</text>
<text text-anchor="start" x="169" y="-301.3" font-family="Times,serif" font-size="14.00">user_id :integer</text>
<text text-anchor="start" x="169" y="-286.3" font-family="Times,serif" font-size="14.00">task_id :integer</text>
</g>
<!-- User&#45;&gt;Post -->
<g id="edge7" class="edge"><title>User&#45;&gt;Post</title>
<path fill="none" stroke="#c6d296" d="M288.061,-666.971C282.963,-656.849 278.523,-646.489 275,-636 250.036,-561.679 257.655,-470.857 267.896,-409.573"/>
<ellipse fill="none" stroke="#c6d296" cx="290.035" cy="-670.751" rx="4.00002" ry="4.00002"/>
<polygon fill="#c6d296" stroke="#c6d296" points="267.913,-409.472 274.059,-400.39 268.769,-404.546 269.625,-399.62 269.625,-399.62 269.625,-399.62 268.769,-404.546 265.191,-398.85 267.913,-409.472 267.913,-409.472"/>
</g>
<!-- ReputationChangeObserver -->
<g id="node6" class="node"><title>ReputationChangeObserver</title>
<polygon fill="none" stroke="black" points="580.5,-787 580.5,-833 747.5,-833 747.5,-787 580.5,-787"/>
<text text-anchor="middle" x="664" y="-817.8" font-family="Times,serif" font-size="14.00">ReputationChangeObserver</text>
<polyline fill="none" stroke="black" points="580.5,-810 747.5,-810 "/>
<text text-anchor="middle" x="664" y="-794.8" font-family="Times,serif" font-size="14.00"> </text>
</g>
<!-- Task&#45;&gt;Action -->
<g id="edge11" class="edge"><title>Task&#45;&gt;Action</title>
<path fill="none" stroke="#25c9a5" d="M482.204,-432.278C488.294,-423.989 494.343,-415.755 500.178,-407.814"/>
<ellipse fill="none" stroke="#25c9a5" cx="479.736" cy="-435.638" rx="4.00002" ry="4.00002"/>
<polygon fill="#25c9a5" stroke="#25c9a5" points="500.252,-407.713 509.799,-402.319 503.212,-403.684 506.172,-399.654 506.172,-399.654 506.172,-399.654 503.212,-403.684 502.546,-396.99 500.252,-407.713 500.252,-407.713"/>
</g>
<!-- Task&#45;&gt;Post -->
<g id="edge12" class="edge"><title>Task&#45;&gt;Post</title>
<path fill="none" stroke="#ac238a" d="M340.713,-431.965C335.723,-424.014 330.767,-416.117 325.976,-408.482"/>
<ellipse fill="none" stroke="#ac238a" cx="342.914" cy="-435.473" rx="4.00002" ry="4.00002"/>
<polygon fill="#ac238a" stroke="#ac238a" points="325.752,-408.124 324.248,-397.262 323.094,-403.889 320.436,-399.654 320.436,-399.654 320.436,-399.654 323.094,-403.889 316.624,-402.046 325.752,-408.124 325.752,-408.124"/>
</g>
<!-- Merit::PointRules -->
<g id="node8" class="node"><title>Merit::PointRules</title>
<polygon fill="none" stroke="black" points="766,-787 766,-833 880,-833 880,-787 766,-787"/>
<text text-anchor="middle" x="823" y="-817.8" font-family="Times,serif" font-size="14.00">Merit::PointRules</text>
<polyline fill="none" stroke="black" points="766,-810 880,-810 "/>
<text text-anchor="middle" x="823" y="-794.8" font-family="Times,serif" font-size="14.00"> </text>
</g>
<!-- Merit::RankRules -->
<g id="node9" class="node"><title>Merit::RankRules</title>
<polygon fill="none" stroke="black" points="898,-787 898,-833 1012,-833 1012,-787 898,-787"/>
<text text-anchor="middle" x="955" y="-817.8" font-family="Times,serif" font-size="14.00">Merit::RankRules</text>
<polyline fill="none" stroke="black" points="898,-810 1012,-810 "/>
<text text-anchor="middle" x="955" y="-794.8" font-family="Times,serif" font-size="14.00"> </text>
</g>
<!-- Merit::BadgeRules -->
<g id="node10" class="node"><title>Merit::BadgeRules</title>
<polygon fill="none" stroke="black" points="1030,-787 1030,-833 1150,-833 1150,-787 1030,-787"/>
<text text-anchor="middle" x="1090" y="-817.8" font-family="Times,serif" font-size="14.00">Merit::BadgeRules</text>
<polyline fill="none" stroke="black" points="1030,-810 1150,-810 "/>
<text text-anchor="middle" x="1090" y="-794.8" font-family="Times,serif" font-size="14.00"> </text>
</g>
<!-- Post&#45;&gt;Comment -->
<g id="edge13" class="edge"><title>Post&#45;&gt;Comment</title>
<path fill="none" stroke="#6a0b03" d="M222.083,-272.542C214.344,-264.226 206.348,-255.635 198.405,-247.1"/>
<ellipse fill="none" stroke="#6a0b03" cx="224.868" cy="-275.535" rx="4.00002" ry="4.00002"/>
<polygon fill="#6a0b03" stroke="#6a0b03" points="198.259,-246.943 194.741,-236.557 194.853,-243.283 191.447,-239.623 191.447,-239.623 191.447,-239.623 194.853,-243.283 188.152,-242.689 198.259,-246.943 198.259,-246.943"/>
</g>
<!-- Post&#45;&gt;Like -->
<g id="edge14" class="edge"><title>Post&#45;&gt;Like</title>
<path fill="none" stroke="#731f20" d="M413.039,-280.073C415.035,-279.366 417.023,-278.674 419,-278 485.723,-255.242 507.556,-266.211 573,-240 585.823,-234.864 598.918,-228.664 611.631,-222.056"/>
<ellipse fill="none" stroke="#731f20" cx="409.065" cy="-281.512" rx="4.00001" ry="4.00001"/>
<polygon fill="#731f20" stroke="#731f20" points="611.979,-221.871 622.921,-221.155 616.395,-219.526 620.81,-217.181 620.81,-217.181 620.81,-217.181 616.395,-219.526 618.7,-213.207 611.979,-221.871 611.979,-221.871"/>
</g>
<!-- Classifier::Bayesian -->
<g id="node12" class="node"><title>Classifier::Bayesian</title>
<polygon fill="none" stroke="black" points="1168.5,-787 1168.5,-833 1293.5,-833 1293.5,-787 1168.5,-787"/>
<text text-anchor="middle" x="1231" y="-817.8" font-family="Times,serif" font-size="14.00">Classifier::Bayesian</text>
<polyline fill="none" stroke="black" points="1168.5,-810 1293.5,-810 "/>
<text text-anchor="middle" x="1231" y="-794.8" font-family="Times,serif" font-size="14.00"> </text>
</g>
</g>
</svg>
