<?xml version="1.0" encoding="UTF-8" standalone="no"?>
<!DOCTYPE svg PUBLIC "-//W3C//DTD SVG 1.1//EN"
 "http://www.w3.org/Graphics/SVG/1.1/DTD/svg11.dtd">
<!-- Generated by graphviz version 2.36.0 (20140111.2315)
 -->
<!-- Title: models_diagram Pages: 1 -->
<svg width="1110pt" height="396pt"
 viewBox="0.00 0.00 1110.00 396.00" xmlns="http://www.w3.org/2000/svg" xmlns:xlink="http://www.w3.org/1999/xlink">
<g id="graph0" class="graph" transform="scale(1 1) rotate(0) translate(4 392)">
<title>models_diagram</title>
<polygon fill="none" stroke="none" points="-4,4 -4,-392 1106,-392 1106,4 -4,4"/>
<!-- _diagram_info -->
<g id="node1" class="node"><title>_diagram_info</title>
<text text-anchor="start" x="93" y="-373.6" font-family="Times,serif" font-size="13.00">Models diagram</text>
<text text-anchor="start" x="93" y="-359.6" font-family="Times,serif" font-size="13.00">Date: Nov 12 2015 &#45; 19:44</text>
<text text-anchor="start" x="93" y="-345.6" font-family="Times,serif" font-size="13.00">Migration version: 20151108172739</text>
<text text-anchor="start" x="93" y="-331.6" font-family="Times,serif" font-size="13.00">Generated by RailRoady 1.4.1</text>
<text text-anchor="start" x="93" y="-317.6" font-family="Times,serif" font-size="13.00">http://railroady.prestonlee.com</text>
</g>
<!-- Comment -->
<g id="node2" class="node"><title>Comment</title>
<ellipse fill="none" stroke="black" cx="81" cy="-106" rx="46.2191" ry="18"/>
<text text-anchor="middle" x="81" y="-102.3" font-family="Times,serif" font-size="14.00">Comment</text>
</g>
<!-- Comment&#45;&gt;Comment -->
<g id="edge1" class="edge"><title>Comment&#45;&gt;Comment</title>
<path fill="none" stroke="#79b46d" d="M134.847,-107.911C141.004,-107.555 145,-106.918 145,-106 145,-105.182 141.826,-104.587 136.775,-104.215"/>
<ellipse fill="none" stroke="#79b46d" cx="130.733" cy="-108.058" rx="4" ry="4"/>
<polygon fill="#79b46d" stroke="#79b46d" points="136.727,-104.213 126.921,-99.3034 131.731,-104.006 126.735,-103.8 126.735,-103.8 126.735,-103.8 131.731,-104.006 126.549,-108.296 136.727,-104.213 136.727,-104.213"/>
<text text-anchor="middle" x="167.5" y="-102.3" font-family="Times,serif" font-size="14.00">children</text>
</g>
<!-- Comment&#45;&gt;Comment -->
<g id="edge3" class="edge"><title>Comment&#45;&gt;Comment</title>
<path fill="none" stroke="#0bba64" d="M136.27,-110.423C163.899,-110.866 190,-109.392 190,-106 190,-102.608 163.899,-101.134 136.27,-101.577"/>
<polygon fill="#0bba64" stroke="#0bba64" points="136.064,-110.418 126.177,-105.674 131.065,-110.296 126.067,-110.173 126.067,-110.173 126.067,-110.173 131.065,-110.296 125.956,-114.672 136.064,-110.418 136.064,-110.418"/>
<polygon fill="#0bba64" stroke="#0bba64" points="136.064,-101.582 125.956,-97.3283 131.065,-101.704 126.067,-101.827 126.067,-101.827 126.067,-101.827 131.065,-101.704 126.177,-106.326 136.064,-101.582 136.064,-101.582"/>
<text text-anchor="middle" x="241.5" y="-102.3" font-family="Times,serif" font-size="14.00">self_and_ancestors</text>
</g>
<!-- Comment&#45;&gt;Comment -->
<g id="edge5" class="edge"><title>Comment&#45;&gt;Comment</title>
<path fill="none" stroke="#83943c" d="M135.753,-111.429C200.074,-114.3 293,-112.491 293,-106 293,-99.5093 200.074,-97.6996 135.753,-100.571"/>
<polygon fill="#83943c" stroke="#83943c" points="135.682,-111.426 125.918,-106.434 130.688,-111.177 125.694,-110.928 125.694,-110.928 125.694,-110.928 130.688,-111.177 125.47,-115.423 135.682,-111.426 135.682,-111.426"/>
<polygon fill="#83943c" stroke="#83943c" points="135.682,-100.574 125.47,-96.5775 130.688,-100.823 125.694,-101.072 125.694,-101.072 125.694,-101.072 130.688,-100.823 125.918,-105.566 135.682,-100.574 135.682,-100.574"/>
<text text-anchor="middle" x="352" y="-102.3" font-family="Times,serif" font-size="14.00">self_and_descendants</text>
</g>
<!-- CommentHierarchy -->
<g id="node13" class="node"><title>CommentHierarchy</title>
<ellipse fill="none" stroke="black" cx="81" cy="-18" rx="81.3646" ry="18"/>
<text text-anchor="middle" x="81" y="-14.3" font-family="Times,serif" font-size="14.00">CommentHierarchy</text>
</g>
<!-- Comment&#45;&gt;CommentHierarchy -->
<g id="edge2" class="edge"><title>Comment&#45;&gt;CommentHierarchy</title>
<path fill="none" stroke="#9ca69f" d="M37.7882,-90.6666C28.7356,-85.5915 20.3285,-78.857 15,-70 7.33448,-57.2583 16.438,-46.5327 30.091,-38.2559"/>
<ellipse fill="none" stroke="#9ca69f" cx="41.5716" cy="-92.5826" rx="4.00002" ry="4.00002"/>
<polygon fill="#9ca69f" stroke="#9ca69f" points="30.265,-38.1622 41.2034,-37.3852 34.6678,-35.7925 39.0706,-33.4227 39.0706,-33.4227 39.0706,-33.4227 34.6678,-35.7925 36.9378,-29.4602 30.265,-38.1622 30.265,-38.1622"/>
<text text-anchor="middle" x="71" y="-58.3" font-family="Times,serif" font-size="14.00">ancestor_hierarchies</text>
</g>
<!-- Comment&#45;&gt;CommentHierarchy -->
<g id="edge4" class="edge"><title>Comment&#45;&gt;CommentHierarchy</title>
<path fill="none" stroke="#332b94" d="M113.854,-86.1881C119.166,-81.606 123.925,-76.2038 127,-70 132.171,-59.5671 126.703,-49.6724 117.961,-41.4235"/>
<ellipse fill="none" stroke="#332b94" cx="110.588" cy="-88.7315" rx="4.00002" ry="4.00002"/>
<polygon fill="#332b94" stroke="#332b94" points="117.743,-41.2447 112.861,-31.4254 113.876,-38.0753 110.008,-34.9058 110.008,-34.9058 110.008,-34.9058 113.876,-38.0753 107.156,-38.3862 117.743,-41.2447 117.743,-41.2447"/>
<text text-anchor="middle" x="193.5" y="-58.3" font-family="Times,serif" font-size="14.00">descendant_hierarchies</text>
</g>
<!-- User -->
<g id="node3" class="node"><title>User</title>
<ellipse fill="none" stroke="black" cx="344" cy="-349" rx="26.949" ry="18"/>
<text text-anchor="middle" x="344" y="-345.3" font-family="Times,serif" font-size="14.00">User</text>
</g>
<!-- User&#45;&gt;Comment -->
<g id="edge8" class="edge"><title>User&#45;&gt;Comment</title>
<path fill="none" stroke="#b36d17" d="M324.403,-327.371C318.853,-321.667 312.755,-315.528 307,-310 236.428,-242.211 149.436,-166.05 106.897,-129.262"/>
<ellipse fill="none" stroke="#b36d17" cx="327.389" cy="-330.462" rx="4.00002" ry="4.00002"/>
<polygon fill="#b36d17" stroke="#b36d17" points="106.812,-129.188 102.184,-119.247 103.027,-125.921 99.2428,-122.653 99.2428,-122.653 99.2428,-122.653 103.027,-125.921 96.3019,-126.059 106.812,-129.188 106.812,-129.188"/>
</g>
<!-- Like -->
<g id="node4" class="node"><title>Like</title>
<ellipse fill="none" stroke="black" cx="492" cy="-106" rx="27" ry="18"/>
<text text-anchor="middle" x="492" y="-102.3" font-family="Times,serif" font-size="14.00">Like</text>
</g>
<!-- User&#45;&gt;Like -->
<g id="edge9" class="edge"><title>User&#45;&gt;Like</title>
<path fill="none" stroke="#7789d3" d="M362.184,-326.467C370.445,-316.29 380.111,-303.806 388,-292 424.642,-237.161 460.89,-168.561 479.38,-132.256"/>
<ellipse fill="none" stroke="#7789d3" cx="359.53" cy="-329.7" rx="4.00002" ry="4.00002"/>
<polygon fill="#7789d3" stroke="#7789d3" points="479.382,-132.252 487.913,-125.363 481.64,-127.791 483.899,-123.33 483.899,-123.33 483.899,-123.33 481.64,-127.791 479.884,-121.298 479.382,-132.252 479.382,-132.252"/>
</g>
<!-- Action -->
<g id="node5" class="node"><title>Action</title>
<ellipse fill="none" stroke="black" cx="377" cy="-180" rx="34.1708" ry="18"/>
<text text-anchor="middle" x="377" y="-176.3" font-family="Times,serif" font-size="14.00">Action</text>
</g>
<!-- User&#45;&gt;Action -->
<g id="edge10" class="edge"><title>User&#45;&gt;Action</title>
<path fill="none" stroke="#061d3c" d="M358.182,-325.012C366.334,-310.418 375.772,-290.801 380,-272 384.754,-250.857 383.556,-226.262 381.417,-207.975"/>
<ellipse fill="none" stroke="#061d3c" cx="356.066" cy="-328.688" rx="4.00002" ry="4.00002"/>
<polygon fill="#061d3c" stroke="#061d3c" points="381.411,-207.923 384.548,-197.416 380.749,-202.967 380.087,-198.011 380.087,-198.011 380.087,-198.011 380.749,-202.967 375.627,-198.607 381.411,-207.923 381.411,-207.923"/>
</g>
<!-- Task -->
<g id="node7" class="node"><title>Task</title>
<ellipse fill="none" stroke="black" cx="344" cy="-254" rx="27.4223" ry="18"/>
<text text-anchor="middle" x="344" y="-250.3" font-family="Times,serif" font-size="14.00">Task</text>
</g>
<!-- User&#45;&gt;Task -->
<g id="edge6" class="edge"><title>User&#45;&gt;Task</title>
<path fill="none" stroke="#7eda2f" d="M344,-322.562C344,-310.078 344,-295.025 344,-282.299"/>
<ellipse fill="none" stroke="#7eda2f" cx="344" cy="-326.942" rx="4" ry="4"/>
<polygon fill="#7eda2f" stroke="#7eda2f" points="344,-282.264 348.5,-272.264 344,-277.264 344,-272.264 344,-272.264 344,-272.264 344,-277.264 339.5,-272.264 344,-282.264 344,-282.264"/>
</g>
<!-- Post -->
<g id="node11" class="node"><title>Post</title>
<ellipse fill="none" stroke="black" cx="292" cy="-180" rx="27" ry="18"/>
<text text-anchor="middle" x="292" y="-176.3" font-family="Times,serif" font-size="14.00">Post</text>
</g>
<!-- User&#45;&gt;Post -->
<g id="edge7" class="edge"><title>User&#45;&gt;Post</title>
<path fill="none" stroke="#aa43f3" d="M330.502,-324.77C322.529,-310.085 312.876,-290.457 307,-272 300.341,-251.083 296.512,-226.472 294.392,-208.122"/>
<ellipse fill="none" stroke="#aa43f3" cx="332.55" cy="-328.467" rx="4.00002" ry="4.00002"/>
<polygon fill="#aa43f3" stroke="#aa43f3" points="294.386,-208.06 297.808,-197.642 293.859,-203.088 293.333,-198.116 293.333,-198.116 293.333,-198.116 293.859,-203.088 288.858,-198.59 294.386,-208.06 294.386,-208.06"/>
</g>
<!-- ReputationChangeObserver -->
<g id="node6" class="node"><title>ReputationChangeObserver</title>
<polygon fill="none" stroke="black" points="556.25,-367 389.75,-367 389.75,-331 556.25,-331 556.25,-367"/>
<text text-anchor="middle" x="473" y="-345.3" font-family="Times,serif" font-size="14.00">ReputationChangeObserver</text>
</g>
<!-- Task&#45;&gt;Action -->
<g id="edge11" class="edge"><title>Task&#45;&gt;Action</title>
<path fill="none" stroke="#d945e6" d="M354.927,-229.16C358.165,-222.095 361.728,-214.321 365.029,-207.119"/>
<ellipse fill="none" stroke="#d945e6" cx="353.155" cy="-233.026" rx="4.00002" ry="4.00002"/>
<polygon fill="#d945e6" stroke="#d945e6" points="365.146,-206.864 373.403,-199.648 367.229,-202.318 369.312,-197.773 369.312,-197.773 369.312,-197.773 367.229,-202.318 365.222,-195.898 365.146,-206.864 365.146,-206.864"/>
</g>
<!-- Task&#45;&gt;Post -->
<g id="edge12" class="edge"><title>Task&#45;&gt;Post</title>
<path fill="none" stroke="#06ea5e" d="M327.961,-230.792C322.024,-222.571 315.27,-213.22 309.231,-204.859"/>
<ellipse fill="none" stroke="#06ea5e" cx="330.375" cy="-234.134" rx="4.00002" ry="4.00002"/>
<polygon fill="#06ea5e" stroke="#06ea5e" points="309.116,-204.699 306.909,-193.958 306.189,-200.646 303.261,-196.592 303.261,-196.592 303.261,-196.592 306.189,-200.646 299.613,-199.227 309.116,-204.699 309.116,-204.699"/>
</g>
<!-- Merit::PointRules -->
<g id="node8" class="node"><title>Merit::PointRules</title>
<polygon fill="none" stroke="black" points="689,-367 575,-367 575,-331 689,-331 689,-367"/>
<text text-anchor="middle" x="632" y="-345.3" font-family="Times,serif" font-size="14.00">Merit::PointRules</text>
</g>
<!-- Merit::RankRules -->
<g id="node9" class="node"><title>Merit::RankRules</title>
<polygon fill="none" stroke="black" points="821,-367 707,-367 707,-331 821,-331 821,-367"/>
<text text-anchor="middle" x="764" y="-345.3" font-family="Times,serif" font-size="14.00">Merit::RankRules</text>
</g>
<!-- Merit::BadgeRules -->
<g id="node10" class="node"><title>Merit::BadgeRules</title>
<polygon fill="none" stroke="black" points="958.5,-367 839.5,-367 839.5,-331 958.5,-331 958.5,-367"/>
<text text-anchor="middle" x="899" y="-345.3" font-family="Times,serif" font-size="14.00">Merit::BadgeRules</text>
</g>
<!-- Post&#45;&gt;Comment -->
<g id="edge13" class="edge"><title>Post&#45;&gt;Comment</title>
<path fill="none" stroke="#581869" d="M260.259,-168.169C223.98,-155.789 164.409,-135.462 123.988,-121.669"/>
<ellipse fill="none" stroke="#581869" cx="264.42" cy="-169.589" rx="4.00001" ry="4.00001"/>
<polygon fill="#581869" stroke="#581869" points="123.868,-121.628 115.857,-114.139 119.136,-120.013 114.404,-118.398 114.404,-118.398 114.404,-118.398 119.136,-120.013 112.95,-122.657 123.868,-121.628 123.868,-121.628"/>
</g>
<!-- Post&#45;&gt;Like -->
<g id="edge14" class="edge"><title>Post&#45;&gt;Like</title>
<path fill="none" stroke="#ceb1f6" d="M321.796,-166.587C325.877,-164.991 330.028,-163.42 334,-162 387.478,-142.885 403.084,-144.62 456,-124 457.835,-123.285 459.708,-122.518 461.588,-121.72"/>
<ellipse fill="none" stroke="#ceb1f6" cx="317.817" cy="-168.174" rx="4.00001" ry="4.00001"/>
<polygon fill="#ceb1f6" stroke="#ceb1f6" points="461.763,-121.642 472.728,-121.675 466.328,-119.604 470.894,-117.566 470.894,-117.566 470.894,-117.566 466.328,-119.604 469.06,-113.457 461.763,-121.642 461.763,-121.642"/>
</g>
<!-- Classifier::Bayesian -->
<g id="node12" class="node"><title>Classifier::Bayesian</title>
<polygon fill="none" stroke="black" points="1102.25,-367 977.75,-367 977.75,-331 1102.25,-331 1102.25,-367"/>
<text text-anchor="middle" x="1040" y="-345.3" font-family="Times,serif" font-size="14.00">Classifier::Bayesian</text>
</g>
</g>
</svg>
